<?xml version="1.0" standalone="no"?>
<!DOCTYPE svg PUBLIC "-//W3C//DTD SVG 20010904//EN"
 "http://www.w3.org/TR/2001/REC-SVG-20010904/DTD/svg10.dtd">
<svg version="1.0" xmlns="http://www.w3.org/2000/svg"
 width="1116.000000pt" height="1116.000000pt" viewBox="0 0 1116.000000 1116.000000"
 preserveAspectRatio="xMidYMid meet">
<metadata>
Created by potrace 1.14, written by Peter Selinger 2001-2017
</metadata>
<g transform="translate(0.000000,1116.000000) scale(0.100000,-0.100000)"
fill="#000000" stroke="none">
<path d="M5520 9915 c-74 -55 -166 -198 -172 -268 -3 -34 -8 -34 -33 6 -59 93
-207 123 -323 65 -81 -41 -112 -110 -83 -188 22 -59 58 -84 124 -84 79 -1 124
41 119 113 -3 47 -39 63 -96 41 -35 -13 -33 -38 2 -42 19 -2 27 -9 27 -22 0
-44 -73 -46 -96 -4 -16 30 -13 85 5 103 35 35 126 53 179 36 113 -38 106 -159
-15 -278 -62 -62 -84 -80 -164 -133 -137 -91 -266 -139 -395 -147 -103 -7
-160 13 -205 73 -38 50 -41 129 -6 166 30 32 28 36 -14 31 -46 -5 -127 -36
-170 -65 -94 -65 -97 -185 -5 -258 41 -32 129 -70 164 -70 49 -1 -11 -19 -83
-25 -227 -20 -369 -86 -438 -203 -23 -39 -27 -59 -28 -122 -1 -41 -4 -83 -8
-92 -4 -9 -9 -24 -10 -34 -2 -11 -16 -21 -34 -26 -17 -5 -33 -12 -36 -17 -3
-5 -21 -6 -38 -2 -76 17 -172 -13 -223 -71 -92 -103 -125 -188 -141 -367 -3
-41 -8 -81 -9 -90 -2 -9 -4 -20 -5 -26 0 -5 -11 17 -24 51 -43 116 -95 174
-168 188 -95 17 -196 -96 -212 -237 l-6 -49 31 26 c17 14 38 27 47 28 9 0 24
2 32 3 44 5 119 -46 147 -99 40 -78 13 -258 -63 -414 -47 -97 -151 -242 -211
-296 -20 -17 -45 -39 -56 -48 -22 -20 -79 -38 -117 -38 -80 0 -127 116 -86
214 20 47 42 65 79 66 58 0 99 -49 76 -91 -15 -29 -54 -22 -54 10 0 45 -40 32
-45 -14 -6 -55 14 -85 57 -85 89 0 139 121 82 201 -40 56 -136 73 -195 34 -62
-40 -99 -158 -81 -255 12 -60 52 -121 98 -149 l29 -18 -52 -12 c-66 -15 -147
-61 -203 -116 -62 -61 -76 -91 -61 -133 25 -74 180 -189 279 -207 l38 -7 -29
-18 c-100 -61 -133 -220 -72 -340 37 -73 117 -104 189 -74 46 19 67 43 79 88
22 78 -29 156 -102 156 -42 0 -66 -31 -56 -73 4 -19 11 -40 15 -46 11 -18 30
-7 31 17 2 38 4 42 14 42 5 0 19 -9 31 -21 37 -37 -1 -93 -65 -97 -101 -7
-135 198 -44 262 49 35 141 8 213 -62 176 -170 292 -399 300 -591 7 -145 -71
-233 -197 -222 -9 0 -31 13 -49 28 l-32 27 7 -49 c15 -104 101 -233 159 -236
58 -4 82 2 117 25 44 29 75 76 106 160 20 57 22 58 27 31 3 -17 9 -61 12 -100
9 -105 15 -134 38 -195 56 -151 162 -242 278 -242 27 1 53 4 59 7 5 3 17 1 27
-5 10 -5 31 -15 47 -20 16 -6 26 -13 23 -17 -4 -3 0 -18 8 -33 10 -19 12 -44
8 -78 -8 -73 18 -141 77 -200 47 -47 150 -107 200 -117 44 -9 153 -25 225 -33
l70 -7 -55 -18 c-77 -26 -135 -61 -166 -102 -33 -44 -42 -110 -20 -152 32 -63
131 -122 219 -131 l48 -5 -25 38 c-32 47 -33 87 -4 143 85 160 400 109 688
-111 156 -120 214 -225 169 -309 -53 -100 -279 -53 -262 54 3 18 12 41 20 51
31 34 104 11 89 -28 -3 -8 -17 -15 -31 -15 -15 0 -25 -6 -25 -14 0 -19 12 -26
52 -31 84 -10 101 90 25 143 -38 25 -83 28 -132 8 -64 -27 -95 -116 -65 -184
39 -87 183 -134 296 -95 44 15 108 68 129 106 9 16 10 14 12 -13 6 -90 123
-256 206 -291 21 -9 34 -9 57 1 66 27 166 157 190 247 13 50 30 79 30 52 0
-42 111 -109 188 -113 140 -8 242 60 242 159 0 110 -93 173 -194 131 -33 -14
-67 -67 -63 -96 8 -48 52 -69 101 -50 34 13 34 40 1 40 -30 0 -43 24 -25 45
17 20 53 19 79 -2 29 -24 31 -85 5 -114 -53 -59 -180 -61 -234 -4 -30 32 -31
95 -2 152 66 127 323 304 517 354 132 34 230 26 289 -23 67 -55 83 -130 41
-192 -14 -20 -25 -38 -25 -40 0 -2 21 1 48 5 169 32 263 135 222 244 -16 43
-86 102 -145 124 -31 12 -62 21 -70 21 -17 0 -29 16 -12 18 263 18 384 58 483
159 52 54 80 131 71 197 -6 41 17 126 34 126 4 0 20 5 36 12 15 6 33 10 38 9
6 -2 33 -3 62 -3 75 -1 153 39 202 105 77 103 105 183 116 332 3 39 8 79 10
90 2 11 4 27 5 35 0 8 9 -11 19 -42 42 -130 112 -202 197 -202 54 0 87 22 131
88 32 47 45 83 59 161 l7 40 -26 -24 c-90 -83 -239 -1 -252 139 -13 138 50
320 173 494 137 195 268 270 350 201 60 -50 58 -178 -3 -235 -20 -18 -31 -22
-62 -17 -38 6 -73 37 -73 63 0 8 9 23 21 35 23 23 37 17 44 -21 6 -30 9 -32
28 -17 25 19 26 76 1 101 -35 36 -104 12 -133 -46 -32 -66 -10 -143 52 -174
75 -39 163 -13 204 62 65 118 32 282 -69 344 l-29 18 38 7 c94 17 248 128 278
199 17 40 4 75 -48 127 -75 75 -192 139 -254 139 -13 0 -9 5 12 19 111 68 141
244 62 362 -32 48 -81 71 -136 65 -107 -14 -158 -115 -104 -207 28 -47 96 -65
127 -33 16 16 20 66 8 94 -11 23 -37 18 -35 -7 1 -11 -4 -26 -12 -33 -11 -9
-18 -7 -34 9 -27 27 -26 46 4 76 27 28 79 33 107 11 48 -36 63 -156 28 -214
-36 -59 -117 -66 -193 -16 -125 82 -287 327 -332 502 -21 82 -27 177 -14 224
18 68 83 126 146 129 49 3 61 0 93 -27 l31 -27 -6 49 c-18 140 -120 256 -210
240 -72 -13 -150 -101 -175 -198 -6 -27 -14 -47 -16 -45 -8 8 -14 50 -19 127
-11 151 -56 269 -136 351 -69 71 -108 84 -241 78 -18 -1 -83 25 -86 33 -2 4
-9 22 -16 40 -8 19 -12 59 -11 93 5 82 -28 151 -98 206 -91 72 -170 103 -291
115 -39 3 -82 8 -96 10 -14 1 -35 3 -47 3 -38 1 -26 16 23 29 139 37 223 148
184 242 -27 66 -137 131 -238 143 l-43 5 25 -27 c65 -68 30 -188 -68 -232 -85
-39 -248 -16 -398 55 -105 50 -210 124 -301 214 -110 107 -124 218 -33 261 51
25 76 26 145 5 44 -13 55 -21 67 -50 28 -67 -28 -135 -86 -104 -29 15 -22 44
13 48 54 6 16 52 -43 52 -32 0 -60 -39 -54 -74 11 -63 71 -102 139 -91 99 14
149 132 93 215 -37 55 -107 85 -197 84 -89 0 -143 -23 -188 -79 -33 -41 -43
-44 -43 -11 0 36 -65 156 -112 206 -80 85 -120 98 -178 55z m195 -375 c47 -61
182 -202 236 -245 195 -159 351 -240 734 -380 345 -127 473 -204 550 -336 48
-82 51 -95 21 -103 -34 -8 -56 -33 -56 -62 0 -31 -8 -30 -50 7 -92 81 -202
166 -289 224 -109 71 -374 216 -439 239 -114 41 -374 102 -557 131 -22 4 -141
8 -265 10 -196 2 -243 -1 -365 -21 -161 -26 -136 -20 -332 -72 -171 -45 -208
-61 -396 -164 -191 -104 -346 -212 -480 -334 -49 -44 -70 -54 -65 -31 5 28
-15 57 -48 69 -18 6 -34 16 -34 22 0 25 83 146 132 193 75 70 171 119 413 209
396 149 563 228 695 331 220 172 362 331 429 483 11 25 23 48 26 52 4 3 25
-31 49 -76 23 -45 64 -111 91 -146z m60 -664 c365 -34 724 -164 1030 -374 148
-101 169 -119 304 -252 205 -203 359 -426 471 -685 66 -151 137 -397 154 -535
3 -25 9 -70 13 -100 14 -110 6 -472 -12 -540 -2 -8 -6 -31 -9 -50 -32 -205
-109 -433 -214 -635 -310 -593 -868 -1010 -1529 -1140 -28 -5 -44 -8 -163 -24
-95 -14 -411 -11 -515 4 -125 18 -147 23 -256 50 -524 131 -978 454 -1286 912
-138 207 -281 551 -318 768 -7 39 -24 140 -30 180 -10 61 -13 371 -4 450 46
425 180 770 426 1103 134 181 341 379 520 497 48 32 99 65 113 74 43 29 201
107 290 144 192 79 427 135 635 153 44 3 81 7 82 8 5 4 236 -2 298 -8z m-1965
-489 c0 -28 31 -59 62 -64 12 -2 23 -5 25 -6 1 -2 -16 -23 -38 -48 -151 -167
-313 -414 -429 -654 -45 -92 -134 -438 -155 -595 -24 -189 -25 -495 -1 -615 2
-11 7 -40 10 -65 22 -164 119 -511 160 -575 12 -18 38 -65 113 -205 28 -53 89
-147 147 -225 54 -74 72 -96 151 -184 l49 -56 -27 -5 c-38 -7 -67 -35 -67 -65
0 -14 -3 -25 -6 -25 -26 0 -141 77 -194 130 -52 52 -76 87 -116 170 -28 58
-63 139 -78 180 -15 41 -31 84 -36 95 -5 11 -29 74 -54 140 -58 156 -91 233
-139 325 -81 154 -236 354 -354 456 -37 32 -70 61 -73 64 -23 24 -97 70 -166
105 l-83 42 42 19 c162 71 344 227 486 416 126 168 179 269 281 538 211 554
239 599 424 701 62 35 66 35 66 6z m3593 2 c184 -94 244 -187 403 -624 26 -71
51 -134 56 -139 4 -6 8 -16 8 -23 0 -22 87 -207 138 -294 152 -257 402 -502
593 -581 l49 -21 -74 -36 c-196 -99 -382 -279 -541 -524 -74 -114 -126 -227
-218 -474 -147 -391 -180 -457 -272 -548 -49 -49 -164 -125 -189 -125 -3 0 -6
10 -6 23 0 29 -36 64 -69 69 -24 3 -22 6 34 68 145 161 291 386 417 641 23 47
107 335 122 419 2 14 7 36 10 50 3 14 8 43 12 65 3 22 7 51 9 65 23 169 24
534 0 620 -3 8 -7 31 -9 50 -14 96 -19 117 -75 333 -36 136 -66 214 -113 295
-19 31 -47 82 -63 112 -66 129 -195 311 -313 444 l-54 60 27 8 c38 10 65 37
65 65 0 28 1 28 53 2z m-3375 -3412 c158 -140 293 -233 517 -355 146 -79 211
-104 405 -156 238 -64 407 -85 665 -81 195 3 238 7 390 36 139 26 152 29 368
91 96 27 303 135 483 253 101 66 304 226 312 247 7 17 28 7 29 -14 2 -26 33
-58 59 -62 28 -5 21 -36 -27 -111 -87 -139 -188 -198 -574 -340 -215 -80 -338
-132 -455 -196 -69 -38 -206 -138 -290 -211 -120 -106 -229 -240 -285 -351
l-44 -88 -35 68 c-141 279 -450 542 -806 688 -36 15 -123 48 -195 75 -373 138
-454 178 -545 270 -75 75 -141 190 -111 190 29 0 71 39 71 66 0 34 12 30 68
-19z"/>
<path d="M4967 8278 c-46 -12 -90 -66 -89 -108 2 -68 61 -131 143 -150 145
-35 289 41 289 153 0 31 -7 45 -31 68 -17 16 -40 30 -50 30 -10 1 -29 2 -41 3
-63 5 -143 -39 -178 -97 -28 -45 -16 -50 40 -15 38 24 61 31 96 30 84 -1 112
-65 45 -105 -26 -15 -71 -23 -71 -12 0 2 5 15 12 29 11 25 41 42 66 38 18 -4
15 25 -4 32 -9 3 -31 6 -49 6 -46 0 -93 -55 -86 -102 1 -12 -78 25 -98 46 -46
50 -26 117 40 131 16 4 28 12 26 18 -5 15 -17 16 -60 5z"/>
<path d="M5270 8285 c0 -3 23 -27 51 -54 51 -49 52 -50 47 -101 -4 -38 -12
-58 -34 -81 -62 -65 -112 -74 -262 -48 -133 23 -191 24 -220 3 -28 -19 -45
-59 -36 -86 3 -11 51 -55 105 -99 104 -82 124 -104 42 -45 -27 19 -87 53 -135
75 -141 67 -200 150 -156 219 19 30 46 43 116 57 48 10 43 36 -5 30 -109 -16
-143 -36 -168 -99 -27 -67 -3 -140 75 -226 63 -68 80 -109 96 -225 16 -111 43
-176 97 -232 17 -18 29 -34 26 -36 -2 -2 -31 -8 -64 -15 -79 -15 -258 -75
-291 -97 -31 -20 -54 -72 -53 -117 0 -32 1 -32 10 -8 23 56 83 92 175 104 27
4 60 9 74 11 14 2 41 6 60 9 19 3 84 12 144 21 97 15 110 15 118 1 17 -31 72
-78 112 -96 51 -24 278 -81 270 -69 -3 5 -36 25 -72 43 -66 34 -152 99 -142
109 3 3 46 -3 95 -14 124 -26 283 -49 338 -49 34 0 53 6 77 26 17 15 29 28 26
31 -2 2 -26 -2 -53 -10 -80 -24 -130 -11 -291 76 l-112 60 28 17 c90 55 143
180 140 330 -1 90 10 162 40 250 35 104 35 177 -2 224 -37 50 -63 46 -36 -5
18 -32 20 -99 6 -133 -22 -51 -86 -106 -238 -201 -219 -138 -292 -222 -292
-340 -1 -106 58 -166 179 -185 50 -7 50 -8 10 -9 -22 0 -56 3 -75 9 -24 7 -36
6 -41 -1 -8 -13 -65 -3 -94 17 -19 14 -19 14 0 14 11 0 36 -4 55 -10 l35 -9
-27 22 c-15 12 -36 45 -48 72 -31 72 -22 142 30 241 22 42 40 73 40 69 0 -19
267 182 312 234 90 105 82 249 -17 306 -39 24 -65 31 -65 20z m40 -939 c0 -2
-13 -9 -30 -15 -35 -12 -41 -5 -7 9 25 10 37 12 37 6z"/>
<path d="M4730 7991 c16 -31 27 -33 32 -6 4 21 1 25 -19 25 -20 0 -22 -3 -13
-19z"/>
<path d="M5602 7956 c-11 -30 -24 -71 -28 -90 l-6 -36 48 -1 c280 -7 434 -152
480 -449 5 -39 5 -192 -1 -225 -38 -199 -147 -335 -317 -395 -90 -31 -170 -41
-363 -44 l-110 -1 -2 -47 c-2 -39 1 -48 15 -49 140 -7 227 -90 503 -484 107
-154 213 -305 234 -335 194 -278 372 -405 628 -446 23 -4 115 -7 205 -8 l162
-2 0 52 0 51 -73 6 c-229 17 -379 154 -792 726 -159 220 -175 240 -248 315
-26 26 -47 49 -45 51 2 1 35 12 73 24 161 52 294 169 388 342 122 224 124 527
4 754 -40 74 -130 172 -205 221 -115 77 -269 120 -437 123 l-92 2 -21 -55z"/>
<path d="M4943 7177 c-3 -6 -6 -174 -6 -373 0 -200 -1 -364 -2 -364 -1 0 -14
17 -27 38 -84 126 -209 197 -438 247 -8 2 -40 4 -70 5 l-55 2 45 9 c127 26
342 -28 433 -109 35 -31 8 31 -44 104 -74 101 -148 144 -263 150 -113 5 -276
-36 -431 -110 -57 -27 -66 -35 -50 -41 59 -21 151 -71 206 -112 165 -121 297
-147 495 -97 l68 17 32 -37 c18 -21 47 -68 66 -104 l33 -67 1 -355 c1 -195 -2
-368 -7 -384 -24 -85 -110 -146 -205 -146 -30 0 -56 -5 -61 -12 -12 -17 -17
-88 -6 -89 4 -1 203 -2 441 -3 l432 -1 0 51 0 52 -74 4 c-64 3 -81 8 -118 34
-24 16 -54 50 -68 74 l-24 45 -1 729 0 728 -61 28 c-34 15 -79 44 -102 64 -36
33 -46 37 -87 35 -25 -2 -49 -7 -52 -12z"/>
<path d="M3381 2608 c-41 -57 -75 -108 -78 -114 -3 -8 12 -12 46 -11 50 0 51
1 138 92 48 50 97 101 107 113 l19 22 -80 0 -79 0 -73 -102z"/>
<path d="M1375 2389 c-173 -40 -327 -154 -403 -297 -32 -61 -61 -139 -68 -187
-33 -206 19 -368 166 -516 130 -131 279 -186 474 -177 330 17 569 261 567 581
-1 171 -54 305 -165 419 -94 94 -204 156 -318 177 -63 11 -204 12 -253 0z
m265 -204 c201 -81 314 -285 264 -476 -28 -110 -119 -221 -219 -268 -117 -55
-271 -54 -383 3 -61 31 -141 106 -166 155 -79 151 -51 350 66 477 107 116 300
164 438 109z"/>
<path d="M2485 2391 c-130 -34 -225 -152 -225 -280 0 -69 27 -150 67 -199 38
-47 166 -152 234 -192 61 -37 127 -106 138 -146 17 -61 -12 -125 -71 -155 -93
-48 -184 -5 -256 121 -14 25 -27 47 -28 49 -4 5 -164 -90 -164 -97 0 -19 65
-116 109 -164 71 -78 148 -112 261 -114 106 -3 168 18 239 82 85 77 123 164
116 266 -8 110 -69 187 -265 338 -138 106 -170 138 -179 182 -16 70 27 118
106 118 52 0 110 -43 160 -117 9 -13 19 -23 23 -23 5 0 106 72 149 106 8 7
-47 79 -95 128 -64 64 -139 98 -223 102 -36 2 -79 -1 -96 -5z"/>
<path d="M8245 1966 c1 -237 6 -447 10 -466 28 -137 146 -249 297 -281 71 -16
249 -6 320 16 130 41 217 147 245 296 3 19 7 222 9 451 l2 417 -96 -2 -97 -2
-1 -416 c0 -442 -1 -448 -50 -516 -31 -41 -107 -67 -199 -67 -137 1 -218 50
-242 147 -3 12 -6 209 -7 437 l-1 415 -97 1 -97 1 4 -431z"/>
<path d="M5219 2356 c-1 -39 -1 -1107 0 -1123 1 -9 69 -11 289 -9 273 2 290 4
347 26 89 35 176 125 203 211 47 149 -4 306 -123 379 l-34 21 33 44 c41 53 60
127 53 204 -11 136 -113 242 -257 266 -25 5 -150 9 -277 10 l-233 2 -1 -31z
m473 -170 c119 -18 135 -171 25 -228 -31 -15 -66 -20 -173 -24 l-134 -5 -1 26
c0 14 0 45 0 70 0 25 0 73 0 108 l1 63 118 -2 c64 0 138 -4 164 -8z m90 -475
c89 -43 122 -131 77 -210 -39 -71 -83 -85 -281 -89 l-168 -4 0 167 0 167 163
-4 c144 -3 167 -6 209 -27z"/>
<path d="M7521 2376 c-8 -10 -77 -153 -141 -291 -40 -86 -98 -211 -170 -360
-34 -71 -78 -164 -97 -205 -19 -41 -57 -121 -84 -178 -27 -57 -49 -107 -49
-112 0 -4 47 -8 104 -8 l104 0 69 146 c37 80 75 159 84 176 l16 31 204 1 205
2 49 -106 c28 -58 66 -138 85 -176 l35 -71 103 -1 c56 -1 102 0 102 2 0 2 -17
41 -38 86 -22 46 -49 106 -62 133 -28 61 -75 162 -128 275 -22 47 -56 121 -77
165 -42 91 -91 196 -174 374 l-58 125 -36 1 c-21 1 -41 -3 -46 -9z m108 -509
c22 -49 41 -91 41 -95 0 -4 -49 -7 -110 -7 -60 0 -110 3 -110 6 0 4 25 60 56
125 56 116 57 117 69 88 7 -16 31 -69 54 -117z"/>
<path d="M0 1801 c0 -458 3 -581 13 -582 15 -1 147 -1 165 0 9 1 12 58 12 251
l0 250 38 0 37 0 154 -250 c121 -197 158 -250 175 -251 73 -3 197 -1 202 4 5
5 -245 420 -298 493 -5 7 12 19 51 33 122 44 199 148 206 276 8 154 -54 259
-190 322 -60 27 -61 27 -312 31 l-253 4 0 -581z m494 366 c86 -56 86 -178 0
-234 -22 -14 -54 -18 -166 -21 l-138 -4 0 142 0 142 138 -4 c112 -3 144 -7
166 -21z"/>
<path d="M3067 2373 c-2 -5 -3 -266 -3 -582 l1 -574 343 0 c188 0 345 2 348 5
5 5 8 123 5 171 -1 16 -20 17 -250 17 -190 0 -250 3 -253 13 -2 6 -4 82 -4
167 l1 155 90 2 c50 1 120 2 158 2 l67 1 0 94 0 94 -149 0 c-83 0 -154 2 -158
5 -5 3 -8 59 -8 124 l0 118 257 3 258 2 -1 95 0 95 -349 0 c-192 0 -351 -3
-353 -7z"/>
<path d="M3933 1798 l2 -581 345 0 345 0 3 96 3 97 -253 2 -253 3 0 145 c-1
212 -20 189 156 187 124 -2 149 0 152 13 2 8 3 51 2 95 l0 80 -120 2 c-66 1
-136 2 -155 2 l-35 1 0 123 0 122 256 3 255 2 0 95 -1 95 -352 0 -352 0 2
-582z"/>
<path d="M6229 2373 c-1 -5 -2 -266 -3 -580 -1 -503 1 -573 14 -574 19 -1 638
-1 665 0 18 1 20 7 18 83 -1 46 -2 89 -2 96 -1 9 -58 12 -251 12 l-250 0 -1
33 c-1 34 0 221 0 274 l1 32 153 -1 152 -2 2 96 2 96 -151 0 c-82 1 -152 3
-156 6 -4 5 -6 158 -3 234 1 9 59 12 256 12 l255 0 0 95 0 95 -350 0 c-192 0
-351 -3 -351 -7z"/>
<path d="M9306 2293 c1 -49 2 -91 3 -95 0 -4 61 -7 134 -7 72 1 144 0 158 0
l27 -1 0 -472 c1 -260 1 -480 1 -488 1 -12 17 -15 91 -14 50 1 94 4 97 8 3 3
6 220 6 481 0 293 4 478 10 482 5 3 76 5 158 5 82 0 150 3 150 7 1 3 2 45 3
94 l1 87 -420 0 -421 0 2 -87z"/>
<path d="M10220 2376 c0 -2 79 -132 176 -287 97 -156 182 -295 189 -309 9 -19
12 -94 11 -293 -1 -171 3 -267 9 -268 14 -1 146 -1 167 0 16 1 17 24 18 274
l0 272 172 285 c94 157 178 295 186 308 l14 22 -113 0 -114 -1 -70 -117 c-38
-64 -77 -128 -86 -142 -9 -14 -32 -51 -52 -83 l-35 -59 -34 54 c-19 29 -37 60
-41 68 -4 8 -44 74 -90 145 l-83 130 -112 3 c-62 1 -112 1 -112 -2z"/>
</g>
</svg>
